<svg xmlns="http://www.w3.org/2000/svg" height="20" viewBox="0 96 960 960" width="20"><path d="M225.765 848Q179 848 146.5 815.333 114 782.667 114 736H58V364q0-33.425 22.287-55.713Q102.575 286 136 286h528v138h102l136 188v124h-64q0 46.667-32.735 79.333Q772.529 848 725.765 848q-45.932 0-77.848-32.667Q616 782.667 616 736H338q0 47-32.735 79.5-32.736 32.5-79.5 32.5Zm.2-46q27.435 0 46.735-19.265t19.3-46.7q0-27.435-19.265-46.735t-46.7-19.3q-27.435 0-46.735 19.265t-19.3 46.7q0 27.435 19.265 46.735t46.7 19.3ZM104 690h20q12-30 40.031-48 28.03-18 62-18Q258 624 287 642.5t40.529 47.5H618V332H136q-12 0-22 10t-10 22v326Zm621.965 112q27.435 0 46.735-19.265t19.3-46.7q0-27.435-19.265-46.735t-46.7-19.3q-27.435 0-46.735 19.265t-19.3 46.7q0 27.435 19.265 46.735t46.7 19.3ZM664 616l184-1-107-145h-77v146ZM363 514Z"/></svg>